<svg width="119" height="32" xmlns="http://www.w3.org/2000/svg" class="Slogan__Logo-sc-1p7dv1t-9 bjCLzJ"><g fill="none" fill-rule="evenodd"><g fill="#FFF"><path d="M44.448 27.111v-1.568h-5.304v-3.808h4.34v-1.568h-4.34v-3.28h5.128v-1.552h-6.993v11.776h7.17zm2.476 0l1.029-1.856c.273-.544.546-1.072.82-1.568h.08c.321.496.627 1.04.916 1.568l1.157 1.856h2.01l-2.846-4.384 2.653-4.416h-1.93l-.932 1.776c-.24.48-.498.976-.739 1.472h-.064c-.29-.496-.579-.992-.836-1.472l-1.061-1.776h-1.993l2.652 4.208-2.861 4.592h1.945zm9.5 3.568v-2.848l-.049-1.504c.756.64 1.543.992 2.331.992 1.993 0 3.81-1.728 3.81-4.752 0-2.704-1.254-4.48-3.504-4.48-.981 0-1.945.544-2.717 1.184h-.048l-.145-.96h-1.51V30.68h1.832zm1.928-4.88c-.546 0-1.237-.208-1.928-.8v-4.304c.755-.72 1.414-1.072 2.105-1.072 1.48 0 2.074 1.136 2.074 2.976 0 2.064-.965 3.2-2.25 3.2zM68.4 27.32c1.157 0 2.17-.384 2.99-.928l-.643-1.168c-.643.416-1.318.656-2.106.656-1.527 0-2.588-1.008-2.733-2.688h5.739c.048-.208.08-.576.08-.928 0-2.496-1.254-4.176-3.6-4.176-2.074 0-4.035 1.776-4.035 4.64 0 2.896 1.913 4.592 4.308 4.592zm1.736-5.392H65.89c.177-1.552 1.158-2.4 2.267-2.4 1.286 0 1.977.88 1.977 2.4zm5.497 5.184v-5.488c.563-1.392 1.43-1.888 2.154-1.888.354 0 .579.048.884.144l.338-1.6c-.274-.128-.563-.192-.997-.192-.948 0-1.88.672-2.507 1.808h-.049l-.144-1.584H73.8v8.8h1.832zm5.658-10.448c.675 0 1.19-.448 1.19-1.088 0-.656-.515-1.088-1.19-1.088-.675 0-1.173.432-1.173 1.088 0 .64.498 1.088 1.173 1.088zm.916 10.448v-8.8h-1.832v8.8h1.832zm6.462.208c1.158 0 2.17-.384 2.99-.928l-.643-1.168c-.643.416-1.318.656-2.106.656-1.527 0-2.588-1.008-2.732-2.688h5.738c.048-.208.08-.576.08-.928 0-2.496-1.253-4.176-3.6-4.176-2.074 0-4.035 1.776-4.035 4.64 0 2.896 1.913 4.592 4.308 4.592zm1.736-5.392h-4.243c.176-1.552 1.157-2.4 2.266-2.4 1.286 0 1.977.88 1.977 2.4zm5.498 5.184v-6.24c.787-.784 1.35-1.2 2.17-1.2 1.044 0 1.494.608 1.494 2.128v5.312h1.849v-5.536c0-2.24-.836-3.488-2.717-3.488-1.205 0-2.105.656-2.925 1.44h-.048l-.145-1.216h-1.51v8.8h1.832zm11.798.208a4.319 4.319 0 002.861-1.088l-.755-1.216c-.53.448-1.19.8-1.93.8-1.478 0-2.49-1.232-2.49-3.088 0-1.872 1.06-3.12 2.539-3.12.61 0 1.11.256 1.591.688l.917-1.2c-.643-.56-1.463-1.008-2.588-1.008-2.331 0-4.373 1.696-4.373 4.64 0 2.912 1.833 4.592 4.228 4.592zm7.973 0c1.157 0 2.17-.384 2.99-.928l-.644-1.168c-.642.416-1.318.656-2.105.656-1.527 0-2.588-1.008-2.733-2.688h5.739c.048-.208.08-.576.08-.928 0-2.496-1.254-4.176-3.6-4.176-2.074 0-4.035 1.776-4.035 4.64 0 2.896 1.913 4.592 4.308 4.592zm1.736-5.392h-4.244c.177-1.552 1.157-2.4 2.267-2.4 1.285 0 1.977.88 1.977 2.4z" fill-rule="nonzero"></path><path d="M58.014 6.42c.67 0 1.123.24 1.597.723.474.482.592 1.064.592 1.745v1.976c0 .681-.133 1.263-.607 1.745-.473.483-.91.724-1.61.724h-.012a.488.488 0 01-.482-.539l.003-.015.004-.03c0-.006.002-.012.004-.018l.007-.026.005-.018a.366.366 0 01.009-.025l.006-.017a.768.768 0 01.013-.025l.007-.016.009-.015a.24.24 0 00.01-.018l.016-.022.01-.012c.005-.008.012-.015.018-.021l.01-.01c.006-.008.015-.013.022-.021l.01-.004a.568.568 0 01.175-.103c.05-.02.212-.033.212-.033.516 0 .73-.145 1.015-.434a1.42 1.42 0 00.413-1.042c-.417.326-.902.489-1.456.489-.67 0-1.24-.242-1.714-.724a2.4 2.4 0 01-.712-1.746 2.4 2.4 0 01.712-1.745 2.315 2.315 0 011.714-.724zM39.15 4.443c.67 0 1.227.242 1.7.724.474.482.696 1.064.696 1.746 0 .681-.267 1.263-.74 1.746a2.45 2.45 0 01-1.775.723c-.553 0-.943-.163-1.575-.49v1.941l-.006.092c-.031.243-.184.451-.427.451-.275 0-.41-.25-.41-.528V6.914c0-.682.293-1.264.767-1.746a2.44 2.44 0 011.77-.724zm22.127 2.023a.412.412 0 01.457.402v4.013c.008.236-.157.508-.436.493-.002 0-.417-.015-.437-.498v-.067-2.906-.192l.001-.853c.006-.06.055-.39.415-.392zM47.428 6.41c1.938.007 2.425 2.054 2.387 2.4-.031.294-.295.502-.586.502h-3.151c.13.643.706 1.063 1.378 1.036.4-.017.745-.118 1.041-.376a.529.529 0 01.372-.156.534.534 0 01.322.95h-.001c-.48.394-1.115.595-1.736.595-.669 0-1.243-.241-1.717-.724a2.41 2.41 0 01-.714-1.748c0-.68.23-1.266.704-1.749.473-.482 1.039-.732 1.701-.73zm22.516 0c1.938.007 2.425 2.054 2.387 2.4-.031.294-.295.502-.586.502h-3.15c.129.643.705 1.063 1.377 1.036.4-.017.745-.118 1.041-.376a.529.529 0 01.372-.156.534.534 0 01.322.95h-.001c-.48.394-1.115.595-1.735.595-.67 0-1.244-.241-1.718-.724a2.412 2.412 0 01-.714-1.748c0-.68.23-1.266.704-1.749.474-.482 1.039-.732 1.701-.73zM42.428 4.622c.487.027.504.55.504.575v1.115h1.047l.087.01c.224.047.394.275.394.518 0 .277-.23.544-.489.544h-1.039v1.504c0 .409.187.758.472 1.048.274.279.694.422 1.034.432h.015c.267 0 .48.221.48.494a.493.493 0 01-.49.492h-.033a2.425 2.425 0 01-1.73-.719c-.473-.483-.801-1.065-.801-1.747V5.121c0-.276.279-.514.55-.499zm22.229 1.797c.67 0 1.211.241 1.686.724.473.482.68 1.064.68 1.745v1.821c-.002.085-.036.595-.45.588-.457-.007-.454-.609-.454-.609l.001-1.8c0-.408-.125-.757-.41-1.047a1.353 1.353 0 00-1.011-.434c-.4 0-.732.145-1.016.434-.285.29-.403.639-.403 1.047V10.843a.497.497 0 01-.533.487c-.4 0-.494-.4-.499-.499l-.002-.007.002-.001V8.888c0-.681.229-1.263.702-1.745a2.297 2.297 0 011.707-.724zm-12.032 0c.669 0 1.211.241 1.685.724.474.482.682 1.064.682 1.745v1.821c-.004.085-.038.595-.452.588-.456-.007-.453-.609-.453-.609v-1.8c0-.408-.125-.757-.409-1.047a1.353 1.353 0 00-1.012-.434c-.4 0-.73.145-1.016.434-.285.29-.402.639-.402 1.047V10.843a.497.497 0 01-.533.487c-.4 0-.495-.4-.5-.499l-.002-.007.002-.001V8.888c0-.681.229-1.263.703-1.745a2.298 2.298 0 011.707-.724zm5.39.988c-.402 0-.745.145-1.03.434a1.44 1.44 0 00-.426 1.047c0 .409.142.758.426 1.048.285.29.628.434 1.03.434.4 0 .743-.145 1.028-.434.285-.29.427-.64.427-1.048a1.44 1.44 0 00-.427-1.047 1.392 1.392 0 00-1.029-.434zm-10.56.058c-.782.02-1.306.562-1.377.99h2.756c-.071-.428-.608-1.01-1.378-.99zm22.517 0c-.783.02-1.306.562-1.378.99h2.756c-.071-.428-.608-1.01-1.378-.99zM39.15 5.432a1.39 1.39 0 00-1.029.435 1.44 1.44 0 00-.426 1.047c0 .408.142.757.426 1.047.285.29.628.435 1.029.435.4 0 .744-.146 1.029-.435.285-.29.427-.64.427-1.047a1.44 1.44 0 00-.427-1.047 1.39 1.39 0 00-1.029-.435zm22.159-.726c.32 0 .578.263.578.588 0 .326-.259.589-.578.589a.583.583 0 01-.579-.589c0-.325.26-.588.579-.588z"></path></g><path d="M0 32h32.148V0H0z"></path><path d="M12.448 23.053a.798.798 0 01-.696-1.2l3.612-6.229a.806.806 0 011.098-.29c.384.22.516.708.294 1.09l-3.612 6.23a.804.804 0 01-.696.4M18.027 13.434a.802.802 0 01-.698-1.2l1.673-2.888a.807.807 0 011.1-.292.8.8 0 01.296 1.092l-1.674 2.888c-.15.256-.42.4-.697.4" fill="#0F62FE"></path><path d="M19.7 23.053a.803.803 0 01-.696-.4l-7.25-12.505a.796.796 0 01.292-1.093.801.801 0 011.098.293l7.252 12.505a.798.798 0 01-.696 1.2" fill="#0F62FE"></path><path d="M12.895 28.378a.816.816 0 01-.212-.029C7.11 26.837 3.216 21.76 3.216 16c0-3.636 1.56-7.113 4.285-9.539 2.758-2.46 6.319-3.589 10.038-3.18 5.637.62 10.36 5.103 11.233 10.66.569 3.63-.367 7.194-2.635 10.03-.83 1.04-2.091 1.615-3.456 1.501a4.022 4.022 0 01-3.184-1.988l-7.733-13.32a.793.793 0 01.294-1.092.801.801 0 011.096.292l7.735 13.32a2.385 2.385 0 001.913 1.193 2.397 2.397 0 002.078-.902c1.985-2.483 2.804-5.605 2.304-8.787-.762-4.856-4.893-8.775-9.822-9.316-3.27-.366-6.375.628-8.789 2.781A11.19 11.19 0 004.823 16c0 5.039 3.406 9.482 8.285 10.807a.8.8 0 01-.213 1.571" fill="#0F62FE"></path></g></svg>